<svg width="185" height="41" viewBox="0 0 185 41" fill="none" xmlns="http://www.w3.org/2000/svg">
<path d="M36.48 4.84C37.2267 4.94666 37.7333 5.17333 38 5.52C38.2933 5.86667 38.44 6.32 38.44 6.88C38.44 8.72 37.4533 9.57333 35.48 9.44L34.08 9.32C32.5067 9.18666 30.9333 9.08 29.36 9C27.8133 8.92 26.1867 8.88 24.48 8.88H22.68C22.36 12.8267 22.0267 16.4267 21.68 19.68L28.56 19.56C29.5467 19.56 30.2 19.7333 30.52 20.08C30.8667 20.4267 31.04 20.8933 31.04 21.48C31.04 22.3867 30.7733 23.1067 30.24 23.64C29.7067 24.1467 28.9467 24.4 27.96 24.4H21.12L20.88 26.12C20.32 30.52 19.12 33.6533 17.28 35.52C15.4667 37.3867 12.96 38.32 9.76 38.32C7.94667 38.32 6.28 37.9333 4.76 37.16C3.24 36.36 2.12 35.4 1.4 34.28C1.10667 33.8267 0.96 33.28 0.96 32.64C0.96 32 1.10667 31.44 1.4 30.96C1.72 30.48 2.10667 30.24 2.56 30.24C2.88 30.24 3.18667 30.3467 3.48 30.56C3.8 30.7733 4.2 31.1867 4.68 31.8C5.96 33.48 7.54667 34.32 9.44 34.32C10.96 34.32 12.2267 33.7067 13.24 32.48C14.28 31.2267 14.9467 29.2667 15.24 26.6L15.48 24.4H13.56C12.9467 24.4 12.4133 24.2267 11.96 23.88C11.5333 23.5333 11.32 23.04 11.32 22.4C11.32 21.5733 11.5333 20.9467 11.96 20.52C12.3867 20.0667 13.0133 19.84 13.84 19.84C14.5867 19.84 15.32 19.8267 16.04 19.8C16.36 16.8667 16.7067 13.3067 17.08 9.12C14.2 9.38667 12.1733 9.85333 11 10.52C9.82667 11.1867 9.24 12.1733 9.24 13.48C9.24 14.3867 9.50667 15.2533 10.04 16.08C10.2 16.32 10.28 16.56 10.28 16.8C10.28 17.28 10.0133 17.7067 9.48 18.08C8.94667 18.4267 8.34667 18.6 7.68 18.6C6.96 18.6 6.34667 18.3867 5.84 17.96C5.52 17.6933 5.21333 17.1467 4.92 16.32C4.62667 15.4933 4.48 14.5733 4.48 13.56C4.48 10.2533 6.17333 7.85333 9.56 6.36C12.9733 4.86666 17.9467 4.12 24.48 4.12C29.0133 4.12 33.0133 4.36 36.48 4.84ZM51.4059 25.72C51.7526 25.72 52.0193 25.8933 52.2059 26.24C52.3926 26.5867 52.4859 27.0267 52.4859 27.56C52.4859 28.84 52.0993 29.6 51.3259 29.84C49.7259 30.4 47.9659 30.72 46.0459 30.8C45.5393 33.04 44.5393 34.84 43.0459 36.2C41.5526 37.5333 39.8593 38.2 37.9659 38.2C36.3659 38.2 34.9926 37.8133 33.8459 37.04C32.7259 36.2667 31.8726 35.24 31.2859 33.96C30.6993 32.68 30.4059 31.2933 30.4059 29.8C30.4059 27.7733 30.7926 25.9733 31.5659 24.4C32.3393 22.8 33.4059 21.56 34.7659 20.68C36.1259 19.7733 37.6326 19.32 39.2859 19.32C41.3126 19.32 42.9393 20.0267 44.1659 21.44C45.4193 22.8267 46.1526 24.5467 46.3659 26.6C47.6193 26.52 49.1126 26.2533 50.8459 25.8C51.0593 25.7467 51.2459 25.72 51.4059 25.72ZM38.2859 33.96C39.1393 33.96 39.8726 33.6133 40.4859 32.92C41.1259 32.2267 41.5526 31.2267 41.7659 29.92C40.9393 29.36 40.2993 28.6267 39.8459 27.72C39.4193 26.8133 39.2059 25.8533 39.2059 24.84C39.2059 24.4133 39.2459 23.9867 39.3259 23.56H39.1259C38.0593 23.56 37.1659 24.08 36.4459 25.12C35.7526 26.1333 35.4059 27.5733 35.4059 29.44C35.4059 30.9067 35.6859 32.0267 36.2459 32.8C36.8326 33.5733 37.5126 33.96 38.2859 33.96ZM69.4528 25.72C69.7995 25.72 70.0661 25.8933 70.2528 26.24C70.4395 26.5867 70.5328 27.0267 70.5328 27.56C70.5328 28.84 70.1461 29.6 69.3728 29.84C67.7728 30.4 66.0128 30.72 64.0928 30.8C63.5861 33.04 62.5861 34.84 61.0928 36.2C59.5995 37.5333 57.9061 38.2 56.0128 38.2C54.4128 38.2 53.0395 37.8133 51.8928 37.04C50.7728 36.2667 49.9195 35.24 49.3328 33.96C48.7461 32.68 48.4528 31.2933 48.4528 29.8C48.4528 27.7733 48.8395 25.9733 49.6128 24.4C50.3861 22.8 51.4528 21.56 52.8128 20.68C54.1728 19.7733 55.6795 19.32 57.3328 19.32C59.3595 19.32 60.9861 20.0267 62.2128 21.44C63.4661 22.8267 64.1995 24.5467 64.4128 26.6C65.6661 26.52 67.1595 26.2533 68.8928 25.8C69.1061 25.7467 69.2928 25.72 69.4528 25.72ZM56.3328 33.96C57.1861 33.96 57.9195 33.6133 58.5328 32.92C59.1728 32.2267 59.5995 31.2267 59.8128 29.92C58.9861 29.36 58.3461 28.6267 57.8928 27.72C57.4661 26.8133 57.2528 25.8533 57.2528 24.84C57.2528 24.4133 57.2928 23.9867 57.3728 23.56H57.1728C56.1061 23.56 55.2128 24.08 54.4928 25.12C53.7995 26.1333 53.4528 27.5733 53.4528 29.44C53.4528 30.9067 53.7328 32.0267 54.2928 32.8C54.8795 33.5733 55.5595 33.96 56.3328 33.96ZM81.6597 29.08C81.953 31.2667 82.3797 33.4267 82.9397 35.56C83.0464 35.9067 83.0997 36.2667 83.0997 36.64C83.0997 37.84 82.3664 38.44 80.8997 38.44C80.073 38.44 79.433 38.2133 78.9797 37.76C78.553 37.3067 78.153 36.4533 77.7797 35.2L77.7397 35.04C76.7264 36.2933 75.8064 37.1333 74.9797 37.56C74.1797 37.9867 73.2464 38.2 72.1797 38.2C70.553 38.2 69.2064 37.6 68.1397 36.4C67.0997 35.1733 66.5797 33.5867 66.5797 31.64C66.5797 29.5067 67.033 27.5333 67.9397 25.72C68.8464 23.9067 70.0864 22.4267 71.6597 21.28C73.233 20.1067 74.993 19.4 76.9397 19.16C77.4464 14.12 78.4064 9.73333 79.8197 6C81.2597 2.26666 83.1664 0.399998 85.5397 0.399998C86.6864 0.399998 87.633 0.919998 88.3797 1.96C89.153 3 89.5397 4.57333 89.5397 6.68C89.5397 9.61333 88.8197 13.04 87.3797 16.96C85.9397 20.88 84.033 24.92 81.6597 29.08ZM85.0997 4.32C84.3264 4.32 83.593 6.29333 82.8997 10.24C82.233 14.1867 81.7797 18.48 81.5397 23.12C84.4997 16.72 85.9797 11.52 85.9797 7.52C85.9797 6.50667 85.8864 5.72 85.6997 5.16C85.5397 4.6 85.3397 4.32 85.0997 4.32ZM73.5797 34.16C74.113 34.16 74.6197 33.96 75.0997 33.56C75.6064 33.16 76.2464 32.3867 77.0197 31.24C76.753 29.2933 76.6197 27.28 76.6197 25.2C76.6197 24.3733 76.633 23.7333 76.6597 23.28C75.193 23.7067 73.9797 24.68 73.0197 26.2C72.0597 27.72 71.5797 29.4 71.5797 31.24C71.5797 33.1867 72.2464 34.16 73.5797 34.16ZM117.226 25.84C115.52 28.4533 113.453 30.76 111.026 32.76L114.506 36.6C115.12 37.24 115.426 37.9067 115.426 38.6C115.426 39.2667 115.16 39.8133 114.626 40.24C114.093 40.6933 113.386 40.92 112.506 40.92C111.28 40.92 110.346 40.5467 109.706 39.8L106.346 35.84C103.2 37.4133 100.186 38.2 97.3063 38.2C95.1729 38.2 93.3063 37.8667 91.7063 37.2C90.1063 36.5333 88.8663 35.6133 87.9863 34.44C87.1329 33.2667 86.7063 31.96 86.7063 30.52C86.7063 28.5733 87.3063 26.76 88.5063 25.08C89.7329 23.3733 91.7196 21.6933 94.4663 20.04C92.9196 17.2133 92.1463 14.72 92.1463 12.56C92.1463 10.64 92.5463 8.94667 93.3463 7.48C94.1463 6.01333 95.2529 4.88 96.6662 4.08C98.1063 3.28 99.7463 2.88 101.586 2.88C103.933 2.88 105.746 3.56 107.026 4.92C108.333 6.25333 108.986 8.09333 108.986 10.44C108.986 12.3867 108.413 14.2267 107.266 15.96C106.146 17.6667 104.146 19.4133 101.266 21.2C102.973 23.52 105.226 26.2533 108.026 29.4C109.786 27.8267 111.533 25.84 113.266 23.44C113.56 23.0133 113.906 22.72 114.306 22.56C114.706 22.3733 115.2 22.28 115.786 22.28C117.333 22.28 118.106 22.72 118.106 23.6C118.106 24.16 117.813 24.9067 117.226 25.84ZM101.306 7.08C100.053 7.08 99.0663 7.56 98.3463 8.52C97.6263 9.45333 97.2663 10.6267 97.2663 12.04C97.2663 13.72 97.8263 15.56 98.9463 17.56C101.026 16.3333 102.44 15.1467 103.186 14C103.933 12.8533 104.306 11.6 104.306 10.24C104.306 9.25333 104.053 8.48 103.546 7.92C103.04 7.36 102.293 7.08 101.306 7.08ZM97.5463 33.8C99.6263 33.8 101.613 33.3467 103.506 32.44C100.68 29.0533 98.4529 26.16 96.8263 23.76C93.8129 25.7333 92.3063 27.7867 92.3063 29.92C92.3063 31.1467 92.7729 32.1067 93.7063 32.8C94.6396 33.4667 95.9196 33.8 97.5463 33.8ZM154.41 4.84C155.156 4.94666 155.663 5.17333 155.93 5.52C156.223 5.86667 156.37 6.32 156.37 6.88C156.37 8.72 155.383 9.57333 153.41 9.44L152.01 9.32C150.436 9.18666 148.863 9.08 147.29 9C145.743 8.92 144.116 8.88 142.41 8.88H140.61C140.29 12.8267 139.956 16.4267 139.61 19.68L146.49 19.56C147.476 19.56 148.13 19.7333 148.45 20.08C148.796 20.4267 148.97 20.8933 148.97 21.48C148.97 22.3867 148.703 23.1067 148.17 23.64C147.636 24.1467 146.876 24.4 145.89 24.4H139.05L138.81 26.12C138.25 30.52 137.05 33.6533 135.21 35.52C133.396 37.3867 130.89 38.32 127.69 38.32C125.876 38.32 124.21 37.9333 122.69 37.16C121.17 36.36 120.05 35.4 119.33 34.28C119.036 33.8267 118.89 33.28 118.89 32.64C118.89 32 119.036 31.44 119.33 30.96C119.65 30.48 120.036 30.24 120.49 30.24C120.81 30.24 121.116 30.3467 121.41 30.56C121.73 30.7733 122.13 31.1867 122.61 31.8C123.89 33.48 125.476 34.32 127.37 34.32C128.89 34.32 130.156 33.7067 131.17 32.48C132.21 31.2267 132.876 29.2667 133.17 26.6L133.41 24.4H131.49C130.876 24.4 130.343 24.2267 129.89 23.88C129.463 23.5333 129.25 23.04 129.25 22.4C129.25 21.5733 129.463 20.9467 129.89 20.52C130.316 20.0667 130.943 19.84 131.77 19.84C132.516 19.84 133.25 19.8267 133.97 19.8C134.29 16.8667 134.636 13.3067 135.01 9.12C132.13 9.38667 130.103 9.85333 128.93 10.52C127.756 11.1867 127.17 12.1733 127.17 13.48C127.17 14.3867 127.436 15.2533 127.97 16.08C128.13 16.32 128.21 16.56 128.21 16.8C128.21 17.28 127.943 17.7067 127.41 18.08C126.876 18.4267 126.276 18.6 125.61 18.6C124.89 18.6 124.276 18.3867 123.77 17.96C123.45 17.6933 123.143 17.1467 122.85 16.32C122.556 15.4933 122.41 14.5733 122.41 13.56C122.41 10.2533 124.103 7.85333 127.49 6.36C130.903 4.86666 135.876 4.12 142.41 4.12C146.943 4.12 150.943 4.36 154.41 4.84ZM153.406 38.2C152.206 38.2 151.22 37.6533 150.446 36.56C149.7 35.44 149.326 34.0533 149.326 32.4C149.326 30.4 149.46 28.5733 149.726 26.92C149.993 25.24 150.433 23.4667 151.046 21.6C151.313 20.8 151.686 20.2267 152.166 19.88C152.646 19.5333 153.406 19.36 154.446 19.36C155.033 19.36 155.433 19.4533 155.646 19.64C155.886 19.8267 156.006 20.1067 156.006 20.48C156.006 20.6933 155.86 21.4133 155.566 22.64C155.3 23.6267 155.086 24.52 154.926 25.32C154.393 28.12 154.126 29.9867 154.126 30.92C154.126 31.48 154.193 31.88 154.326 32.12C154.46 32.3333 154.673 32.44 154.966 32.44C155.366 32.44 155.86 32.04 156.446 31.24C157.06 30.44 157.7 29.2267 158.366 27.6C159.06 25.9733 159.726 23.9733 160.366 21.6C160.58 20.8 160.9 20.2267 161.326 19.88C161.78 19.5333 162.446 19.36 163.326 19.36C163.94 19.36 164.366 19.44 164.606 19.6C164.846 19.7333 164.966 20 164.966 20.4C164.966 21.0667 164.633 22.8933 163.966 25.88C163.22 29.2933 162.846 31.4 162.846 32.2C162.846 32.7067 162.953 33.1067 163.166 33.4C163.38 33.6667 163.66 33.8 164.006 33.8C164.54 33.8 165.166 33.48 165.886 32.84C166.633 32.1733 167.62 31.1067 168.846 29.64C169.166 29.2667 169.526 29.08 169.926 29.08C170.273 29.08 170.54 29.24 170.726 29.56C170.94 29.88 171.046 30.32 171.046 30.88C171.046 31.9467 170.793 32.7733 170.286 33.36C169.14 34.7733 167.9 35.9333 166.566 36.84C165.26 37.7467 163.766 38.2 162.086 38.2C160.806 38.2 159.86 37.7067 159.246 36.72C158.66 35.7333 158.366 34.3467 158.366 32.56C157.913 34.3733 157.233 35.7733 156.326 36.76C155.42 37.72 154.446 38.2 153.406 38.2ZM170.643 38.2C169.629 38.2 168.909 37.6667 168.483 36.6C168.083 35.5333 167.883 33.8267 167.883 31.48C167.883 28.0133 168.376 24.72 169.363 21.6C169.603 20.8267 169.989 20.2667 170.523 19.92C171.083 19.5467 171.856 19.36 172.843 19.36C173.376 19.36 173.749 19.4267 173.963 19.56C174.176 19.6933 174.283 19.9467 174.283 20.32C174.283 20.7467 174.083 21.7067 173.683 23.2C173.416 24.2667 173.203 25.2 173.043 26C172.883 26.8 172.749 27.7867 172.643 28.96C173.523 26.6667 174.509 24.8 175.603 23.36C176.696 21.92 177.763 20.8933 178.803 20.28C179.869 19.6667 180.843 19.36 181.723 19.36C182.576 19.36 183.216 19.5867 183.643 20.04C184.096 20.4667 184.323 21.1067 184.323 21.96C184.323 22.6533 184.176 23.96 183.883 25.88C183.616 27.5067 183.403 29.0533 183.243 30.52C183.083 31.96 183.003 33.5733 183.003 35.36C183.003 36.3733 182.789 37.1067 182.363 37.56C181.963 37.9867 181.296 38.2 180.363 38.2C179.483 38.2 178.843 37.9733 178.443 37.52C178.043 37.0667 177.843 36.3867 177.843 35.48C177.843 34.4133 178.029 32.6533 178.403 30.2C178.723 28.0667 178.883 26.7067 178.883 26.12C178.883 25.6933 178.736 25.48 178.443 25.48C178.096 25.48 177.603 25.9333 176.963 26.84C176.349 27.72 175.709 28.8933 175.043 30.36C174.403 31.8267 173.883 33.3733 173.483 35C173.189 36.2533 172.843 37.1067 172.443 37.56C172.069 37.9867 171.469 38.2 170.643 38.2Z" fill="#C1A1D3"/>
</svg>
