<svg width="139" height="32" viewBox="0 0 139 32" fill="none" xmlns="http://www.w3.org/2000/svg">
<path d="M27.61 4.13C28.17 4.21 28.55 4.38 28.75 4.64C28.97 4.9 29.08 5.24 29.08 5.66C29.08 7.04 28.34 7.68 26.86 7.58L25.81 7.49C24.63 7.39 23.45 7.31 22.27 7.25C21.11 7.19 19.89 7.16 18.61 7.16H17.26C17.02 10.12 16.77 12.82 16.51 15.26L21.67 15.17C22.41 15.17 22.9 15.3 23.14 15.56C23.4 15.82 23.53 16.17 23.53 16.61C23.53 17.29 23.33 17.83 22.93 18.23C22.53 18.61 21.96 18.8 21.22 18.8H16.09L15.91 20.09C15.49 23.39 14.59 25.74 13.21 27.14C11.85 28.54 9.97 29.24 7.57 29.24C6.21 29.24 4.96 28.95 3.82 28.37C2.68 27.77 1.84 27.05 1.3 26.21C1.08 25.87 0.97 25.46 0.97 24.98C0.97 24.5 1.08 24.08 1.3 23.72C1.54 23.36 1.83 23.18 2.17 23.18C2.41 23.18 2.64 23.26 2.86 23.42C3.1 23.58 3.4 23.89 3.76 24.35C4.72 25.61 5.91 26.24 7.33 26.24C8.47 26.24 9.42 25.78 10.18 24.86C10.96 23.92 11.46 22.45 11.68 20.45L11.86 18.8H10.42C9.96 18.8 9.56 18.67 9.22 18.41C8.9 18.15 8.74 17.78 8.74 17.3C8.74 16.68 8.9 16.21 9.22 15.89C9.54 15.55 10.01 15.38 10.63 15.38C11.19 15.38 11.74 15.37 12.28 15.35C12.52 13.15 12.78 10.48 13.06 7.34C10.9 7.54 9.38 7.89 8.5 8.39C7.62 8.89 7.18 9.63 7.18 10.61C7.18 11.29 7.38 11.94 7.78 12.56C7.9 12.74 7.96 12.92 7.96 13.1C7.96 13.46 7.76 13.78 7.36 14.06C6.96 14.32 6.51 14.45 6.01 14.45C5.47 14.45 5.01 14.29 4.63 13.97C4.39 13.77 4.16 13.36 3.94 12.74C3.72 12.12 3.61 11.43 3.61 10.67C3.61 8.19 4.88 6.39 7.42 5.27C9.98 4.15 13.71 3.59 18.61 3.59C22.01 3.59 25.01 3.77 27.61 4.13ZM38.8045 19.79C39.0645 19.79 39.2645 19.92 39.4045 20.18C39.5445 20.44 39.6145 20.77 39.6145 21.17C39.6145 22.13 39.3245 22.7 38.7445 22.88C37.5445 23.3 36.2245 23.54 34.7845 23.6C34.4045 25.28 33.6545 26.63 32.5345 27.65C31.4145 28.65 30.1445 29.15 28.7245 29.15C27.5245 29.15 26.4945 28.86 25.6345 28.28C24.7945 27.7 24.1545 26.93 23.7145 25.97C23.2745 25.01 23.0545 23.97 23.0545 22.85C23.0545 21.33 23.3445 19.98 23.9245 18.8C24.5045 17.6 25.3045 16.67 26.3245 16.01C27.3445 15.33 28.4745 14.99 29.7145 14.99C31.2345 14.99 32.4545 15.52 33.3745 16.58C34.3145 17.62 34.8645 18.91 35.0245 20.45C35.9645 20.39 37.0845 20.19 38.3845 19.85C38.5445 19.81 38.6845 19.79 38.8045 19.79ZM28.9645 25.97C29.6045 25.97 30.1545 25.71 30.6145 25.19C31.0945 24.67 31.4145 23.92 31.5745 22.94C30.9545 22.52 30.4745 21.97 30.1345 21.29C29.8145 20.61 29.6545 19.89 29.6545 19.13C29.6545 18.81 29.6845 18.49 29.7445 18.17H29.5945C28.7945 18.17 28.1245 18.56 27.5845 19.34C27.0645 20.1 26.8045 21.18 26.8045 22.58C26.8045 23.68 27.0145 24.52 27.4345 25.1C27.8745 25.68 28.3845 25.97 28.9645 25.97ZM52.3396 19.79C52.5996 19.79 52.7996 19.92 52.9396 20.18C53.0796 20.44 53.1496 20.77 53.1496 21.17C53.1496 22.13 52.8596 22.7 52.2796 22.88C51.0796 23.3 49.7596 23.54 48.3196 23.6C47.9396 25.28 47.1896 26.63 46.0696 27.65C44.9496 28.65 43.6796 29.15 42.2596 29.15C41.0596 29.15 40.0296 28.86 39.1696 28.28C38.3296 27.7 37.6896 26.93 37.2496 25.97C36.8096 25.01 36.5896 23.97 36.5896 22.85C36.5896 21.33 36.8796 19.98 37.4596 18.8C38.0396 17.6 38.8396 16.67 39.8596 16.01C40.8796 15.33 42.0096 14.99 43.2496 14.99C44.7696 14.99 45.9896 15.52 46.9096 16.58C47.8496 17.62 48.3996 18.91 48.5596 20.45C49.4996 20.39 50.6196 20.19 51.9196 19.85C52.0796 19.81 52.2196 19.79 52.3396 19.79ZM42.4996 25.97C43.1396 25.97 43.6896 25.71 44.1496 25.19C44.6296 24.67 44.9496 23.92 45.1096 22.94C44.4896 22.52 44.0096 21.97 43.6696 21.29C43.3496 20.61 43.1896 19.89 43.1896 19.13C43.1896 18.81 43.2196 18.49 43.2796 18.17H43.1296C42.3296 18.17 41.6596 18.56 41.1196 19.34C40.5996 20.1 40.3396 21.18 40.3396 22.58C40.3396 23.68 40.5496 24.52 40.9696 25.1C41.4096 25.68 41.9196 25.97 42.4996 25.97ZM61.4948 22.31C61.7148 23.95 62.0348 25.57 62.4548 27.17C62.5348 27.43 62.5748 27.7 62.5748 27.98C62.5748 28.88 62.0248 29.33 60.9248 29.33C60.3048 29.33 59.8248 29.16 59.4848 28.82C59.1648 28.48 58.8648 27.84 58.5848 26.9L58.5548 26.78C57.7948 27.72 57.1048 28.35 56.4848 28.67C55.8848 28.99 55.1848 29.15 54.3848 29.15C53.1648 29.15 52.1548 28.7 51.3548 27.8C50.5748 26.88 50.1848 25.69 50.1848 24.23C50.1848 22.63 50.5248 21.15 51.2048 19.79C51.8848 18.43 52.8148 17.32 53.9948 16.46C55.1748 15.58 56.4948 15.05 57.9548 14.87C58.3348 11.09 59.0548 7.8 60.1148 5C61.1948 2.2 62.6248 0.799998 64.4048 0.799998C65.2648 0.799998 65.9748 1.19 66.5348 1.97C67.1148 2.75 67.4048 3.93 67.4048 5.51C67.4048 7.71 66.8648 10.28 65.7848 13.22C64.7048 16.16 63.2748 19.19 61.4948 22.31ZM64.0748 3.74C63.4948 3.74 62.9448 5.22 62.4248 8.18C61.9248 11.14 61.5848 14.36 61.4048 17.84C63.6248 13.04 64.7348 9.14 64.7348 6.14C64.7348 5.38 64.6648 4.79 64.5248 4.37C64.4048 3.95 64.2548 3.74 64.0748 3.74ZM55.4348 26.12C55.8348 26.12 56.2148 25.97 56.5748 25.67C56.9548 25.37 57.4348 24.79 58.0148 23.93C57.8148 22.47 57.7148 20.96 57.7148 19.4C57.7148 18.78 57.7248 18.3 57.7448 17.96C56.6448 18.28 55.7348 19.01 55.0148 20.15C54.2948 21.29 53.9348 22.55 53.9348 23.93C53.9348 25.39 54.4348 26.12 55.4348 26.12ZM88.1697 19.88C86.8897 21.84 85.3397 23.57 83.5197 25.07L86.1297 27.95C86.5897 28.43 86.8197 28.93 86.8197 29.45C86.8197 29.95 86.6197 30.36 86.2197 30.68C85.8197 31.02 85.2897 31.19 84.6297 31.19C83.7097 31.19 83.0097 30.91 82.5297 30.35L80.0097 27.38C77.6497 28.56 75.3897 29.15 73.2297 29.15C71.6297 29.15 70.2297 28.9 69.0297 28.4C67.8297 27.9 66.8997 27.21 66.2397 26.33C65.5997 25.45 65.2797 24.47 65.2797 23.39C65.2797 21.93 65.7297 20.57 66.6297 19.31C67.5497 18.03 69.0397 16.77 71.0997 15.53C69.9397 13.41 69.3597 11.54 69.3597 9.92C69.3597 8.48 69.6597 7.21 70.2597 6.11C70.8597 5.01 71.6897 4.16 72.7497 3.56C73.8297 2.96 75.0597 2.66 76.4397 2.66C78.1997 2.66 79.5597 3.17 80.5197 4.19C81.4997 5.19 81.9897 6.57 81.9897 8.33C81.9897 9.79 81.5597 11.17 80.6997 12.47C79.8597 13.75 78.3597 15.06 76.1997 16.4C77.4797 18.14 79.1697 20.19 81.2697 22.55C82.5897 21.37 83.8997 19.88 85.1997 18.08C85.4197 17.76 85.6797 17.54 85.9797 17.42C86.2797 17.28 86.6497 17.21 87.0897 17.21C88.2497 17.21 88.8297 17.54 88.8297 18.2C88.8297 18.62 88.6097 19.18 88.1697 19.88ZM76.2297 5.81C75.2897 5.81 74.5497 6.17 74.0097 6.89C73.4697 7.59 73.1997 8.47 73.1997 9.53C73.1997 10.79 73.6197 12.17 74.4597 13.67C76.0197 12.75 77.0797 11.86 77.6397 11C78.1997 10.14 78.4797 9.2 78.4797 8.18C78.4797 7.44 78.2897 6.86 77.9097 6.44C77.5297 6.02 76.9697 5.81 76.2297 5.81ZM73.4097 25.85C74.9697 25.85 76.4597 25.51 77.8797 24.83C75.7597 22.29 74.0897 20.12 72.8697 18.32C70.6097 19.8 69.4797 21.34 69.4797 22.94C69.4797 23.86 69.8297 24.58 70.5297 25.1C71.2297 25.6 72.1897 25.85 73.4097 25.85ZM116.057 4.13C116.617 4.21 116.997 4.38 117.197 4.64C117.417 4.9 117.527 5.24 117.527 5.66C117.527 7.04 116.787 7.68 115.307 7.58L114.257 7.49C113.077 7.39 111.897 7.31 110.717 7.25C109.557 7.19 108.337 7.16 107.057 7.16H105.707C105.467 10.12 105.217 12.82 104.957 15.26L110.117 15.17C110.857 15.17 111.347 15.3 111.587 15.56C111.847 15.82 111.977 16.17 111.977 16.61C111.977 17.29 111.777 17.83 111.377 18.23C110.977 18.61 110.407 18.8 109.667 18.8H104.537L104.357 20.09C103.937 23.39 103.037 25.74 101.657 27.14C100.297 28.54 98.4173 29.24 96.0173 29.24C94.6573 29.24 93.4073 28.95 92.2673 28.37C91.1273 27.77 90.2873 27.05 89.7473 26.21C89.5273 25.87 89.4173 25.46 89.4173 24.98C89.4173 24.5 89.5273 24.08 89.7473 23.72C89.9873 23.36 90.2773 23.18 90.6173 23.18C90.8573 23.18 91.0873 23.26 91.3073 23.42C91.5473 23.58 91.8473 23.89 92.2073 24.35C93.1673 25.61 94.3573 26.24 95.7773 26.24C96.9173 26.24 97.8673 25.78 98.6273 24.86C99.4073 23.92 99.9073 22.45 100.127 20.45L100.307 18.8H98.8673C98.4073 18.8 98.0073 18.67 97.6673 18.41C97.3473 18.15 97.1873 17.78 97.1873 17.3C97.1873 16.68 97.3473 16.21 97.6673 15.89C97.9873 15.55 98.4573 15.38 99.0773 15.38C99.6373 15.38 100.187 15.37 100.727 15.35C100.967 13.15 101.227 10.48 101.507 7.34C99.3473 7.54 97.8273 7.89 96.9473 8.39C96.0673 8.89 95.6273 9.63 95.6273 10.61C95.6273 11.29 95.8273 11.94 96.2273 12.56C96.3473 12.74 96.4073 12.92 96.4073 13.1C96.4073 13.46 96.2073 13.78 95.8073 14.06C95.4073 14.32 94.9573 14.45 94.4573 14.45C93.9173 14.45 93.4573 14.29 93.0773 13.97C92.8373 13.77 92.6073 13.36 92.3873 12.74C92.1673 12.12 92.0573 11.43 92.0573 10.67C92.0573 8.19 93.3273 6.39 95.8673 5.27C98.4273 4.15 102.157 3.59 107.057 3.59C110.457 3.59 113.457 3.77 116.057 4.13ZM115.305 29.15C114.405 29.15 113.665 28.74 113.085 27.92C112.525 27.08 112.245 26.04 112.245 24.8C112.245 23.3 112.345 21.93 112.545 20.69C112.745 19.43 113.075 18.1 113.535 16.7C113.735 16.1 114.015 15.67 114.375 15.41C114.735 15.15 115.305 15.02 116.085 15.02C116.525 15.02 116.825 15.09 116.985 15.23C117.165 15.37 117.255 15.58 117.255 15.86C117.255 16.02 117.145 16.56 116.925 17.48C116.725 18.22 116.565 18.89 116.445 19.49C116.045 21.59 115.845 22.99 115.845 23.69C115.845 24.11 115.895 24.41 115.995 24.59C116.095 24.75 116.255 24.83 116.475 24.83C116.775 24.83 117.145 24.53 117.585 23.93C118.045 23.33 118.525 22.42 119.025 21.2C119.545 19.98 120.045 18.48 120.525 16.7C120.685 16.1 120.925 15.67 121.245 15.41C121.585 15.15 122.085 15.02 122.745 15.02C123.205 15.02 123.525 15.08 123.705 15.2C123.885 15.3 123.975 15.5 123.975 15.8C123.975 16.3 123.725 17.67 123.225 19.91C122.665 22.47 122.385 24.05 122.385 24.65C122.385 25.03 122.465 25.33 122.625 25.55C122.785 25.75 122.995 25.85 123.255 25.85C123.655 25.85 124.125 25.61 124.665 25.13C125.225 24.63 125.965 23.83 126.885 22.73C127.125 22.45 127.395 22.31 127.695 22.31C127.955 22.31 128.155 22.43 128.295 22.67C128.455 22.91 128.535 23.24 128.535 23.66C128.535 24.46 128.345 25.08 127.965 25.52C127.105 26.58 126.175 27.45 125.175 28.13C124.195 28.81 123.075 29.15 121.815 29.15C120.855 29.15 120.145 28.78 119.685 28.04C119.245 27.3 119.025 26.26 119.025 24.92C118.685 26.28 118.175 27.33 117.495 28.07C116.815 28.79 116.085 29.15 115.305 29.15ZM128.232 29.15C127.472 29.15 126.932 28.75 126.612 27.95C126.312 27.15 126.162 25.87 126.162 24.11C126.162 21.51 126.532 19.04 127.272 16.7C127.452 16.12 127.742 15.7 128.142 15.44C128.562 15.16 129.142 15.02 129.882 15.02C130.282 15.02 130.562 15.07 130.722 15.17C130.882 15.27 130.962 15.46 130.962 15.74C130.962 16.06 130.812 16.78 130.512 17.9C130.312 18.7 130.152 19.4 130.032 20C129.912 20.6 129.812 21.34 129.732 22.22C130.392 20.5 131.132 19.1 131.952 18.02C132.772 16.94 133.572 16.17 134.352 15.71C135.152 15.25 135.882 15.02 136.542 15.02C137.182 15.02 137.662 15.19 137.982 15.53C138.322 15.85 138.492 16.33 138.492 16.97C138.492 17.49 138.382 18.47 138.162 19.91C137.962 21.13 137.802 22.29 137.682 23.39C137.562 24.47 137.502 25.68 137.502 27.02C137.502 27.78 137.342 28.33 137.022 28.67C136.722 28.99 136.222 29.15 135.522 29.15C134.862 29.15 134.382 28.98 134.082 28.64C133.782 28.3 133.632 27.79 133.632 27.11C133.632 26.31 133.772 24.99 134.052 23.15C134.292 21.55 134.412 20.53 134.412 20.09C134.412 19.77 134.302 19.61 134.082 19.61C133.822 19.61 133.452 19.95 132.972 20.63C132.512 21.29 132.032 22.17 131.532 23.27C131.052 24.37 130.662 25.53 130.362 26.75C130.142 27.69 129.882 28.33 129.582 28.67C129.302 28.99 128.852 29.15 128.232 29.15Z" fill="white"/>
</svg>
